<svg xmlns="http://www.w3.org/2000/svg" width="18" height="26" viewBox="0 0 18 26" shape-rendering="crispEdges"><rect x="0" y="20" width="2" height="2" fill="#e9e7de"/><rect x="2" y="0" width="2" height="2" fill="#e9e7de"/><rect x="2" y="18" width="2" height="2" fill="#e9e7de"/><rect x="2" y="20" width="2" height="2" fill="#e9e7de"/><rect x="4" y="0" width="2" height="2" fill="#e9e7de"/><rect x="4" y="2" width="2" height="2" fill="#e9e7de"/><rect x="4" y="18" width="2" height="2" fill="#e9e7de"/><rect x="4" y="20" width="2" height="2" fill="#e9e7de"/><rect x="4" y="22" width="2" height="2" fill="#e9e7de"/><rect x="6" y="2" width="2" height="2" fill="#e9e7de"/><rect x="6" y="4" width="2" height="2" fill="#e9e7de"/><rect x="6" y="22" width="2" height="2" fill="#e9e7de"/><rect x="6" y="24" width="2" height="2" fill="#e9e7de"/><rect x="8" y="4" width="2" height="2" fill="#e9e7de"/><rect x="8" y="6" width="2" height="2" fill="#e9e7de"/><rect x="8" y="24" width="2" height="2" fill="#e9e7de"/><rect x="10" y="6" width="2" height="2" fill="#e9e7de"/><rect x="10" y="8" width="2" height="2" fill="#e9e7de"/><rect x="10" y="16" width="2" height="2" fill="#e9e7de"/><rect x="10" y="18" width="2" height="2" fill="#e9e7de"/><rect x="10" y="24" width="2" height="2" fill="#e9e7de"/><rect x="12" y="8" width="2" height="2" fill="#e9e7de"/><rect x="12" y="10" width="2" height="2" fill="#e9e7de"/><rect x="12" y="16" width="2" height="2" fill="#e9e7de"/><rect x="12" y="18" width="2" height="2" fill="#e9e7de"/><rect x="12" y="20" width="2" height="2" fill="#e9e7de"/><rect x="12" y="22" width="2" height="2" fill="#e9e7de"/><rect x="12" y="24" width="2" height="2" fill="#e9e7de"/><rect x="14" y="10" width="2" height="2" fill="#e9e7de"/><rect x="14" y="12" width="2" height="2" fill="#e9e7de"/><rect x="14" y="16" width="2" height="2" fill="#e9e7de"/><rect x="16" y="12" width="2" height="2" fill="#e9e7de"/><rect x="16" y="14" width="2" height="2" fill="#e9e7de"/><rect x="16" y="16" width="2" height="2" fill="#e9e7de"/><rect x="0" y="0" width="2" height="2" fill="#1a1a17"/><rect x="0" y="2" width="2" height="2" fill="#1a1a17"/><rect x="0" y="4" width="2" height="2" fill="#1a1a17"/><rect x="0" y="6" width="2" height="2" fill="#1a1a17"/><rect x="0" y="8" width="2" height="2" fill="#1a1a17"/><rect x="0" y="10" width="2" height="2" fill="#1a1a17"/><rect x="0" y="12" width="2" height="2" fill="#1a1a17"/><rect x="0" y="14" width="2" height="2" fill="#1a1a17"/><rect x="0" y="16" width="2" height="2" fill="#1a1a17"/><rect x="0" y="18" width="2" height="2" fill="#1a1a17"/><rect x="2" y="2" width="2" height="2" fill="#1a1a17"/><rect x="2" y="4" width="2" height="2" fill="#1a1a17"/><rect x="2" y="6" width="2" height="2" fill="#1a1a17"/><rect x="2" y="8" width="2" height="2" fill="#1a1a17"/><rect x="2" y="10" width="2" height="2" fill="#1a1a17"/><rect x="2" y="12" width="2" height="2" fill="#1a1a17"/><rect x="2" y="14" width="2" height="2" fill="#1a1a17"/><rect x="2" y="16" width="2" height="2" fill="#1a1a17"/><rect x="4" y="4" width="2" height="2" fill="#1a1a17"/><rect x="4" y="6" width="2" height="2" fill="#1a1a17"/><rect x="4" y="8" width="2" height="2" fill="#1a1a17"/><rect x="4" y="10" width="2" height="2" fill="#1a1a17"/><rect x="4" y="12" width="2" height="2" fill="#1a1a17"/><rect x="4" y="14" width="2" height="2" fill="#1a1a17"/><rect x="4" y="16" width="2" height="2" fill="#1a1a17"/><rect x="6" y="6" width="2" height="2" fill="#1a1a17"/><rect x="6" y="8" width="2" height="2" fill="#1a1a17"/><rect x="6" y="10" width="2" height="2" fill="#1a1a17"/><rect x="6" y="12" width="2" height="2" fill="#1a1a17"/><rect x="6" y="14" width="2" height="2" fill="#1a1a17"/><rect x="6" y="16" width="2" height="2" fill="#1a1a17"/><rect x="6" y="18" width="2" height="2" fill="#1a1a17"/><rect x="6" y="20" width="2" height="2" fill="#1a1a17"/><rect x="8" y="8" width="2" height="2" fill="#1a1a17"/><rect x="8" y="10" width="2" height="2" fill="#1a1a17"/><rect x="8" y="12" width="2" height="2" fill="#1a1a17"/><rect x="8" y="14" width="2" height="2" fill="#1a1a17"/><rect x="8" y="16" width="2" height="2" fill="#1a1a17"/><rect x="8" y="18" width="2" height="2" fill="#1a1a17"/><rect x="8" y="20" width="2" height="2" fill="#1a1a17"/><rect x="8" y="22" width="2" height="2" fill="#1a1a17"/><rect x="10" y="10" width="2" height="2" fill="#1a1a17"/><rect x="10" y="12" width="2" height="2" fill="#1a1a17"/><rect x="10" y="14" width="2" height="2" fill="#1a1a17"/><rect x="10" y="20" width="2" height="2" fill="#1a1a17"/><rect x="10" y="22" width="2" height="2" fill="#1a1a17"/><rect x="12" y="12" width="2" height="2" fill="#1a1a17"/><rect x="12" y="14" width="2" height="2" fill="#1a1a17"/><rect x="14" y="14" width="2" height="2" fill="#1a1a17"/></svg>